<?xml version="1.0" encoding="UTF-8"?>
<svg id="Layer_1" xmlns="http://www.w3.org/2000/svg" width="1924" height="550.55" xmlns:xlink="http://www.w3.org/1999/xlink" viewBox="0 0 1924 550.55">
  <defs>
    <style>
      .cls-1 {
        fill: #152c40;
        stroke: #fff;
        stroke-miterlimit: 10;
        stroke-width: 4px;
      }

      .cls-2 {
        fill: #fff;
      }

      .cls-3 {
        fill: #007251;
      }

      .cls-4 {
        fill: #cb2026;
      }
    </style>
  </defs>
  <rect class="cls-1" x="2" y="397.83" width="1920" height="150"/>
  <g>
    <path class="cls-2" d="M212.91,443.68c0-10.34,7.94-17.74,18.62-17.74,5.93,0,10.88,2.16,14.11,6.08l-5.1,4.7c-2.3-2.65-5.19-4.02-8.62-4.02-6.42,0-10.98,4.51-10.98,10.98s4.56,10.98,10.98,10.98c3.43,0,6.32-1.37,8.62-4.07l5.1,4.7c-3.23,3.97-8.18,6.12-14.16,6.12-10.63,0-18.57-7.4-18.57-17.74Z"/>
    <path class="cls-2" d="M272.89,453.48h-15.92l-3.04,7.35h-8.13l15.29-34.3h7.84l15.34,34.3h-8.33l-3.04-7.35ZM270.39,447.45l-5.44-13.13-5.44,13.13h10.88Z"/>
    <path class="cls-2" d="M285.19,443.68c0-10.34,7.94-17.74,18.62-17.74,5.93,0,10.88,2.16,14.11,6.08l-5.1,4.7c-2.3-2.65-5.19-4.02-8.62-4.02-6.42,0-10.98,4.51-10.98,10.98s4.56,10.98,10.98,10.98c3.43,0,6.32-1.37,8.62-4.07l5.1,4.7c-3.23,3.97-8.18,6.12-14.16,6.12-10.63,0-18.57-7.4-18.57-17.74Z"/>
    <path class="cls-2" d="M354.71,426.53v34.3h-7.94v-14.06h-15.58v14.06h-7.94v-34.3h7.94v13.52h15.58v-13.52h7.94Z"/>
    <path class="cls-2" d="M389.41,454.46v6.37h-26.56v-34.3h25.92v6.37h-18.03v7.45h15.92v6.17h-15.92v7.94h18.67Z"/>
    <path class="cls-2" d="M442.57,426.53l-14.85,34.3h-7.84l-14.8-34.3h8.57l10.44,24.5,10.58-24.5h7.89Z"/>
    <path class="cls-2" d="M466.87,453.48h-15.92l-3.04,7.35h-8.13l15.29-34.3h7.84l15.34,34.3h-8.33l-3.04-7.35ZM464.38,447.45l-5.44-13.13-5.44,13.13h10.88Z"/>
    <path class="cls-2" d="M481.82,426.53h7.94v27.83h17.2v6.47h-25.13v-34.3Z"/>
    <path class="cls-2" d="M511.42,426.53h7.94v27.83h17.2v6.47h-25.13v-34.3Z"/>
    <path class="cls-2" d="M567.57,454.46v6.37h-26.56v-34.3h25.92v6.37h-18.03v7.45h15.92v6.17h-15.92v7.94h18.67Z"/>
    <path class="cls-2" d="M590.01,448.68v12.15h-7.94v-12.25l-13.28-22.05h8.43l9.16,15.24,9.16-15.24h7.79l-13.33,22.15Z"/>
    <path class="cls-2" d="M238.24,501.94h7.25v13.92c-3.77,2.84-8.97,4.36-13.87,4.36-10.78,0-18.72-7.4-18.72-17.74s7.94-17.74,18.86-17.74c6.03,0,11.02,2.06,14.36,5.93l-5.1,4.7c-2.5-2.65-5.39-3.87-8.87-3.87-6.66,0-11.22,4.46-11.22,10.98s4.56,10.97,11.12,10.97c2.16,0,4.16-.39,6.17-1.47v-10.04Z"/>
    <path class="cls-2" d="M274.7,519.63l-6.61-9.55h-7.3v9.55h-7.94v-34.3h14.85c9.16,0,14.89,4.75,14.89,12.44,0,5.14-2.6,8.92-7.06,10.83l7.69,11.02h-8.53ZM267.25,491.8h-6.47v11.96h6.47c4.85,0,7.3-2.25,7.3-5.98s-2.45-5.98-7.3-5.98Z"/>
    <path class="cls-2" d="M286.71,502.48c0-10.19,7.94-17.74,18.77-17.74s18.77,7.5,18.77,17.74-7.99,17.74-18.77,17.74-18.77-7.54-18.77-17.74ZM316.2,502.48c0-6.52-4.61-10.98-10.73-10.98s-10.73,4.46-10.73,10.98,4.61,10.97,10.73,10.97,10.73-4.46,10.73-10.97Z"/>
    <path class="cls-2" d="M329.92,504.54v-19.21h7.94v18.91c0,6.52,2.84,9.21,7.64,9.21s7.64-2.69,7.64-9.21v-18.91h7.84v19.21c0,10.09-5.78,15.68-15.53,15.68s-15.53-5.59-15.53-15.68Z"/>
    <path class="cls-2" d="M400.28,485.33v34.3h-6.52l-17.1-20.82v20.82h-7.84v-34.3h6.57l17.05,20.82v-20.82h7.84Z"/>
    <path class="cls-2" d="M408.42,485.33h15.58c11.22,0,18.91,6.76,18.91,17.15s-7.69,17.15-18.91,17.15h-15.58v-34.3ZM423.61,513.11c6.81,0,11.27-4.07,11.27-10.63s-4.46-10.63-11.27-10.63h-7.25v21.26h7.25Z"/>
    <path class="cls-2" d="M499.6,485.33l-11.22,34.3h-8.53l-7.55-23.22-7.79,23.22h-8.48l-11.27-34.3h8.23l7.74,24.11,8.08-24.11h7.35l7.84,24.3,7.99-24.3h7.59Z"/>
    <path class="cls-2" d="M525.48,512.28h-15.92l-3.04,7.35h-8.13l15.29-34.3h7.84l15.34,34.3h-8.33l-3.04-7.35ZM522.98,506.25l-5.44-13.13-5.44,13.13h10.88Z"/>
    <path class="cls-2" d="M545.82,491.8h-10.98v-6.47h29.89v6.47h-10.98v27.83h-7.94v-27.83Z"/>
    <path class="cls-2" d="M595.55,513.26v6.37h-26.56v-34.3h25.92v6.37h-18.03v7.45h15.92v6.17h-15.92v7.94h18.67Z"/>
    <path class="cls-2" d="M623.72,519.63l-6.61-9.55h-7.3v9.55h-7.94v-34.3h14.85c9.16,0,14.89,4.75,14.89,12.44,0,5.14-2.6,8.92-7.06,10.83l7.69,11.02h-8.53ZM616.28,491.8h-6.47v11.96h6.47c4.85,0,7.3-2.25,7.3-5.98s-2.45-5.98-7.3-5.98Z"/>
    <path class="cls-2" d="M681.49,497.77c0,7.64-5.73,12.4-14.89,12.4h-6.91v9.46h-7.94v-34.3h14.85c9.16,0,14.89,4.75,14.89,12.44ZM673.46,497.77c0-3.77-2.45-5.98-7.3-5.98h-6.47v11.91h6.47c4.85,0,7.3-2.21,7.3-5.93Z"/>
    <path class="cls-2" d="M708.98,519.63l-6.61-9.55h-7.3v9.55h-7.94v-34.3h14.85c9.16,0,14.89,4.75,14.89,12.44,0,5.14-2.6,8.92-7.06,10.83l7.69,11.02h-8.53ZM701.54,491.8h-6.47v11.96h6.47c4.85,0,7.3-2.25,7.3-5.98s-2.45-5.98-7.3-5.98Z"/>
    <path class="cls-2" d="M720.99,502.48c0-10.19,7.94-17.74,18.77-17.74s18.77,7.5,18.77,17.74-7.99,17.74-18.77,17.74-18.77-7.54-18.77-17.74ZM750.48,502.48c0-6.52-4.61-10.98-10.73-10.98s-10.73,4.46-10.73,10.98,4.61,10.97,10.73,10.97,10.73-4.46,10.73-10.97Z"/>
    <path class="cls-2" d="M758.91,515.22l4.41-5.29c1.86,2.5,3.92,3.77,6.37,3.77,3.18,0,4.85-1.91,4.85-5.68v-16.32h-12.05v-6.37h19.94v22.24c0,8.48-4.26,12.64-12.35,12.64-4.61,0-8.67-1.76-11.17-5Z"/>
    <path class="cls-2" d="M816.83,513.26v6.37h-26.56v-34.3h25.92v6.37h-18.03v7.45h15.92v6.17h-15.92v7.94h18.67Z"/>
    <path class="cls-2" d="M820.9,502.48c0-10.34,7.94-17.74,18.62-17.74,5.93,0,10.88,2.16,14.11,6.08l-5.1,4.7c-2.3-2.65-5.19-4.02-8.62-4.02-6.42,0-10.97,4.51-10.97,10.98s4.56,10.97,10.97,10.97c3.43,0,6.32-1.37,8.62-4.07l5.1,4.7c-3.23,3.97-8.18,6.12-14.16,6.12-10.63,0-18.57-7.4-18.57-17.74Z"/>
    <path class="cls-2" d="M865.73,491.8h-10.97v-6.47h29.89v6.47h-10.98v27.83h-7.94v-27.83Z"/>
    <path class="cls-2" d="M902.78,485.33h15.58c11.22,0,18.91,6.76,18.91,17.15s-7.69,17.15-18.91,17.15h-15.58v-34.3ZM917.97,513.11c6.81,0,11.27-4.07,11.27-10.63s-4.46-10.63-11.27-10.63h-7.25v21.26h7.25Z"/>
    <path class="cls-2" d="M965.35,512.28h-15.92l-3.04,7.35h-8.13l15.29-34.3h7.84l15.34,34.3h-8.33l-3.04-7.35ZM962.85,506.25l-5.44-13.13-5.44,13.13h10.88Z"/>
    <path class="cls-2" d="M977.6,516.25l2.69-5.98c2.89,2.11,7.2,3.58,11.32,3.58,4.7,0,6.61-1.57,6.61-3.67,0-6.42-19.94-2.01-19.94-14.75,0-5.83,4.7-10.68,14.45-10.68,4.31,0,8.72,1.03,11.91,3.04l-2.45,6.03c-3.18-1.81-6.47-2.69-9.5-2.69-4.7,0-6.52,1.76-6.52,3.92,0,6.32,19.94,1.96,19.94,14.55,0,5.73-4.75,10.63-14.55,10.63-5.44,0-10.93-1.62-13.96-3.97Z"/>
    <path class="cls-2" d="M1043.01,485.33v34.3h-7.94v-14.06h-15.58v14.06h-7.94v-34.3h7.94v13.52h15.58v-13.52h7.94Z"/>
    <path class="cls-2" d="M1082.6,510.27c0,5.93-4.7,9.36-13.72,9.36h-17.74v-34.3h16.76c8.57,0,12.98,3.58,12.98,8.92,0,3.43-1.76,6.08-4.56,7.54,3.82,1.23,6.27,4.17,6.27,8.48ZM1059.04,491.31v8.08h7.89c3.87,0,5.98-1.37,5.98-4.07s-2.11-4.02-5.98-4.02h-7.89ZM1074.62,509.44c0-2.89-2.21-4.26-6.32-4.26h-9.26v8.48h9.26c4.12,0,6.32-1.27,6.32-4.21Z"/>
    <path class="cls-2" d="M1086.48,502.48c0-10.19,7.94-17.74,18.77-17.74s18.76,7.5,18.76,17.74-7.99,17.74-18.76,17.74-18.77-7.54-18.77-17.74ZM1115.97,502.48c0-6.52-4.61-10.98-10.73-10.98s-10.73,4.46-10.73,10.98,4.61,10.97,10.73,10.97,10.73-4.46,10.73-10.97Z"/>
    <path class="cls-2" d="M1152.09,512.28h-15.92l-3.04,7.35h-8.13l15.29-34.3h7.84l15.33,34.3h-8.33l-3.04-7.35ZM1149.59,506.25l-5.44-13.13-5.44,13.13h10.88Z"/>
    <path class="cls-2" d="M1188.88,519.63l-6.61-9.55h-7.3v9.55h-7.94v-34.3h14.85c9.16,0,14.9,4.75,14.9,12.44,0,5.14-2.6,8.92-7.06,10.83l7.69,11.02h-8.53ZM1181.44,491.8h-6.47v11.96h6.47c4.85,0,7.3-2.25,7.3-5.98s-2.45-5.98-7.3-5.98Z"/>
    <path class="cls-2" d="M1203.05,485.33h15.58c11.22,0,18.91,6.76,18.91,17.15s-7.69,17.15-18.91,17.15h-15.58v-34.3ZM1218.24,513.11c6.81,0,11.27-4.07,11.27-10.63s-4.46-10.63-11.27-10.63h-7.25v21.26h7.25Z"/>
  </g>
  <image width="1024" height="1024" transform="translate(24.33 395.1) scale(.15)" xlink:href="../../../Downloads/CacheGW Logo.png"/>
  <g>
    <rect class="cls-2" x="1528.86" y="425.5" width="219.77" height="88.99"/>
    <path id="USGS" class="cls-3" d="M1630.44,433.62v37.08c0,7.82-4.42,16.08-17.74,16.08-12.02,0-17.82-6.23-17.82-16.08v-37.08h10.94v36.36c0,6.45,2.75,8.98,6.74,8.98,4.78,0,6.95-3.19,6.95-8.98v-36.36h10.94M1648.23,486.78c-13.54,0-16.08-7.97-15.5-17.02h10.94c0,5,.22,9.2,6.23,9.2,3.69,0,5.5-2.39,5.5-5.94,0-9.42-22.02-10-22.02-25.57,0-8.18,3.91-14.7,17.24-14.7,10.65,0,15.94,4.78,15.21,15.72h-10.65c0-3.91-.65-7.9-5.07-7.9-3.55,0-5.65,1.96-5.65,5.58,0,9.92,22.02,9.05,22.02,25.5,0,13.54-9.92,15.14-18.25,15.14M1721.75,486.78c-13.54,0-16.08-7.97-15.5-17.02h10.93c0,5,.22,9.2,6.23,9.2,3.7,0,5.51-2.39,5.51-5.94,0-9.42-22.02-10-22.02-25.57,0-8.18,3.91-14.7,17.24-14.7,10.65,0,15.93,4.78,15.21,15.72h-10.65c0-3.91-.65-7.9-5.07-7.9-3.55,0-5.65,1.96-5.65,5.58,0,9.92,22.02,9.05,22.02,25.5,0,13.54-9.92,15.14-18.25,15.14M1686.91,466.43h6.44v11.54l-.54.2c-1.66.58-3.62,1.01-5.43,1.01-6.23,0-7.82-2.9-7.82-19.26,0-10.14,0-19.34,6.81-19.34,5.3,0,6.42,3.58,6.51,7.9h10.89c.09-10.15-6.45-15.72-16.75-15.72-17.89,0-18.54,13.4-18.54,26.58,0,19.84,2.15,27.55,20.55,27.55,4.27,0,11.06-.96,14.2-1.82.19-.05.53-.26.53-.53v-25.99h-16.84v7.89"/>
    <path id="waves" class="cls-3" d="M1549.23,451.13l.18.18c5.12,4.29,10.65,3.88,14.87,1.07,2.65-1.77,14.67-9.75,21.46-14.27v-4.51h-50.6v11.91c3.08-.53,8.05,0,14.09,5.62M1568.27,470.94l-5.98-5.73c-.84-.76-1.56-1.33-1.71-1.44-4.89-3.43-9.44-2.39-11.4-1.66-.59.24-1.16.56-1.56.82l-12.47,8.34v15.12h50.6v-10.88c-1.11.71-7.97,4.41-17.47-4.56M1548.78,452.48c-.27-.25-.57-.52-.84-.74-5.98-4.62-11.62-2.36-12.81-1.79v5.2l2.93-1.97s4.51-3.35,11.53.09l-.82-.78M1555.77,459.2c-.26-.23-.53-.47-.79-.73-5.3-4.49-10.43-3.34-12.55-2.56-.6.24-1.18.57-1.58.82l-5.71,3.82v5.36l9.54-6.43s4.46-3.31,11.41.02l-.32-.31M1585.74,464.81c-1.99,1.34-4.01,2.71-4.82,3.24-1.8,1.21-5.96,4.19-12.9.88l.82.78c.3.27.68.59,1.08.91,4.98,3.72,10.3,3.19,14.29.54.55-.37,1.06-.7,1.53-1.02v-5.34M1585.74,454.08c-4.37,2.94-10.27,6.9-11.38,7.65-1.8,1.21-6.03,4.23-12.81.99l.79.75c.09.08.18.16.27.25h0s0,0,0,0c5.27,4.46,11.07,3.78,15.05,1.12,2.24-1.5,5.43-3.65,8.09-5.45v-5.3M1585.74,443.41c-6.3,4.22-16.64,11.15-17.89,11.99-1.81,1.22-6.09,4.29-12.79,1.09l.81.78c.48.44,1.14.99,1.83,1.44,4.64,2.96,9.49,2.44,13.44-.2,2.84-1.9,9.82-6.54,14.61-9.72v-5.38"/>
    <path id="tagline" class="cls-3" d="M1537.72,501.95c-.11.42-.17.82-.11,1.11.09.3.33.44.84.44s1.02-.33,1.15-.95c.42-1.95-4.21-1.52-3.58-4.46.42-1.99,2.53-2.6,4.19-2.6,1.75,0,3.16.84,2.6,2.83h-2.52c.14-.64.14-1.02,0-1.19-.13-.17-.34-.2-.62-.2-.57,0-.95.37-1.09.99-.31,1.46,4.24,1.39,3.61,4.35-.34,1.61-1.91,2.82-4.05,2.82-2.25,0-3.63-.57-2.93-3.14h2.52M1548.74,498.96c.29-1.37.04-1.83-.76-1.83-1.1,0-1.39.97-1.8,2.89-.6,2.81-.49,3.42.46,3.42.8,0,1.34-.73,1.6-1.94h2.58c-.53,2.5-2.11,3.58-4.53,3.58-3.33,0-3.33-2.03-2.72-4.92.54-2.52,1.36-4.68,4.76-4.68,2.38,0,3.5,1.06,2.99,3.47h-2.58M1556.76,492.12l-.43,2.03h-2.58l.43-2.03h2.58M1554.04,504.9h-2.58l1.96-9.23h2.58l-1.96,9.23h0ZM1677.36,492.12l-.43,2.03h-2.58l.43-2.03h2.58M1674.64,504.9h-2.58l1.96-9.23h2.58l-1.96,9.23h0ZM1561.68,499.26c.19-.89.5-2.17-.73-2.17s-1.47,1.39-1.63,2.17h2.36M1559.01,500.7c-.23,1.1-.55,2.74.59,2.74.91,0,1.28-.88,1.45-1.64h2.61c-.25,1.01-.75,1.83-1.5,2.39-.72.57-1.71.9-2.91.9-3.33,0-3.33-2.03-2.72-4.92.54-2.52,1.36-4.68,4.76-4.68s3.38,2.25,2.66,5.21h-4.94ZM1568.81,496.61h.04c.69-.82,1.44-1.12,2.41-1.12,1.22,0,2.15.73,1.88,2.01l-1.57,7.4h-2.58l1.35-6.36c.17-.82.17-1.46-.66-1.46s-1.11.64-1.28,1.46l-1.35,6.36h-2.58l1.96-9.23h2.58l-.2.93M1579.04,498.97c.29-1.37.04-1.83-.76-1.83-1.1,0-1.39.97-1.8,2.89-.6,2.81-.49,3.42.46,3.42.8,0,1.34-.73,1.6-1.94h2.58c-.53,2.5-2.11,3.58-4.53,3.58-3.33,0-3.33-2.03-2.72-4.92.54-2.52,1.36-4.68,4.76-4.68,2.38,0,3.5,1.06,2.99,3.47h-2.58M1587.59,499.26c.19-.89.5-2.17-.73-2.17s-1.47,1.39-1.63,2.17h2.35M1584.93,500.71c-.24,1.1-.55,2.74.59,2.74.91,0,1.28-.88,1.45-1.64h2.61c-.25,1.01-.75,1.83-1.5,2.39-.72.57-1.71.9-2.91.9-3.33,0-3.33-2.03-2.72-4.92.54-2.52,1.36-4.68,4.76-4.68s3.38,2.25,2.66,5.21h-4.93ZM1600.68,493.77c-1.03-.07-1.33.33-1.53,1.26l-.18.65h1.21l-.34,1.59h-1.21l-1.62,7.64h-2.58l1.62-7.64h-1.15l.34-1.59h1.17c.52-2.31.98-3.59,3.71-3.59.31,0,.6.02.91.04l-.34,1.64M1604.85,500.03c.41-1.92.52-2.89-.57-2.89s-1.39.97-1.8,2.89c-.6,2.81-.49,3.42.46,3.42s1.31-.6,1.91-3.42M1599.87,500.18c.54-2.52,1.36-4.68,4.76-4.68s3.31,2.16,2.77,4.68c-.61,2.89-1.48,4.92-4.81,4.92s-3.34-2.03-2.72-4.91h0ZM1612.02,495.68l-.25,1.19h.04c.7-1.06,1.64-1.37,2.69-1.37l-.49,2.3c-2.24-.15-2.55,1.17-2.75,2.08l-1.07,5.03h-2.58l1.96-9.23h2.45M1619.8,502.04c-.14.66-.2,1.46.64,1.46,1.52,0,1.72-2.05,1.93-3.05-1.29.06-2.22-.05-2.56,1.59M1624.31,503.19c-.12.57-.17,1.15-.24,1.72h-2.39l.15-1.22h-.04c-.75.95-1.6,1.41-2.71,1.41-1.79,0-2.16-1.33-1.82-2.94.65-3.05,3.03-3.18,5.42-3.14l.15-.71c.17-.79.18-1.35-.75-1.35s-1.11.68-1.27,1.41h-2.52c.24-1.12.74-1.83,1.43-2.25.68-.44,1.55-.61,2.54-.61,3.27,0,3.39,1.41,3.03,3.09l-.98,4.61h0ZM1634.51,498.97c.29-1.37.04-1.83-.76-1.83-1.1,0-1.39.97-1.8,2.89-.6,2.81-.49,3.42.46,3.42.8,0,1.34-.73,1.6-1.94h2.58c-.53,2.5-2.11,3.58-4.53,3.58-3.33,0-3.33-2.03-2.72-4.92.54-2.52,1.36-4.68,4.76-4.68,2.38,0,3.5,1.06,2.99,3.47h-2.58M1648.66,502.04c-.14.66-.2,1.46.64,1.46,1.52,0,1.72-2.05,1.93-3.05-1.29.06-2.22-.05-2.57,1.59M1653.17,503.19c-.12.57-.17,1.15-.24,1.72h-2.39l.15-1.22h-.04c-.75.95-1.6,1.41-2.72,1.41-1.79,0-2.16-1.33-1.82-2.94.65-3.05,3.03-3.18,5.42-3.14l.15-.71c.16-.79.18-1.35-.76-1.35s-1.11.68-1.27,1.41h-2.52c.24-1.12.74-1.83,1.43-2.25.68-.44,1.55-.61,2.54-.61,3.27,0,3.39,1.41,3.03,3.09l-.98,4.61h0ZM1658.82,496.62h.03c.69-.82,1.44-1.12,2.41-1.12,1.22,0,2.15.73,1.87,2.01l-1.57,7.4h-2.58l1.35-6.36c.17-.82.16-1.46-.66-1.46s-1.11.64-1.28,1.46l-1.35,6.36h-2.58l1.96-9.23h2.58l-.2.93M1666.95,503.2c.93,0,1.27-.97,1.68-2.92.43-2.03.59-3.18-.37-3.18s-1.28.68-1.88,3.49c-.18.86-.68,2.61.56,2.61M1672.18,495.69l-2.04,9.61c-.14.64-.64,3.16-4.18,3.16-1.92,0-3.46-.49-3.04-2.74h2.52c-.08.39-.1.71.02.93.12.24.38.37.78.37.64,0,1.08-.61,1.28-1.54l.38-1.77h-.04c-.54.71-1.34,1.08-2.18,1.08-2.83,0-2.16-2.59-1.71-4.68.43-2.03,1.02-4.61,3.7-4.61.91,0,1.62.4,1.8,1.26h.04l.23-1.08h2.45s.01,0,.01,0h-.01ZM1680.81,496.62h.04c.69-.82,1.44-1.12,2.41-1.12,1.22,0,2.15.73,1.88,2.01l-1.57,7.4h-2.58l1.35-6.36c.17-.82.16-1.46-.66-1.46s-1.1.64-1.28,1.46l-1.35,6.36h-2.58l1.96-9.23h2.58l-.2.93M1688.93,503.2c.93,0,1.27-.97,1.68-2.92.43-2.03.59-3.18-.36-3.18s-1.28.68-1.88,3.49c-.18.86-.68,2.61.56,2.61M1694.17,495.69l-2.04,9.61c-.14.64-.63,3.16-4.18,3.16-1.92,0-3.46-.49-3.03-2.74h2.52c-.08.39-.1.71.02.93.12.24.38.37.78.37.64,0,1.08-.61,1.28-1.54l.38-1.77h-.03c-.54.71-1.35,1.08-2.19,1.08-2.83,0-2.15-2.59-1.71-4.68.43-2.03,1.02-4.61,3.7-4.61.91,0,1.61.4,1.8,1.26h.04l.23-1.08h2.45s0,0,0,0h0ZM1698.2,495.69h2.56l-.21,6.95h.03l3.07-6.95h2.74l.03,6.95h.04l2.81-6.95h2.47l-4.38,9.23h-2.7l-.27-6.12h-.04l-3.09,6.12h-2.74l-.34-9.23M1716.19,500.04c.41-1.92.52-2.89-.57-2.89s-1.4.97-1.8,2.89c-.6,2.81-.49,3.42.46,3.42s1.31-.6,1.91-3.42M1711.21,500.18c.53-2.52,1.36-4.68,4.76-4.68s3.31,2.16,2.77,4.68c-.61,2.89-1.48,4.92-4.81,4.92s-3.33-2.03-2.72-4.91h0ZM1723.5,495.69l-.25,1.19h.04c.7-1.06,1.64-1.37,2.69-1.37l-.49,2.3c-2.23-.15-2.55,1.17-2.75,2.08l-1.07,5.03h-2.58l1.96-9.23h2.45M1643.96,495.5c-.97,0-1.72.29-2.41,1.12h-.04l.95-4.49h-2.58l-2.72,12.78h2.58l1.35-6.36c.17-.82.46-1.46,1.28-1.46s.83.64.66,1.46l-1.35,6.36h2.58l1.57-7.4c.27-1.28-.65-2.01-1.88-2.01M1727.8,492.14l-2.72,12.78h2.58l2.72-12.78h-2.58M1734.69,500.22c-.49,2.32-.86,3.29-1.74,3.29-.93,0-.89-.97-.4-3.29.39-1.85.65-3.12,1.76-3.12s.77,1.28.38,3.12M1736.41,492.14l-.94,4.43h-.04c-.36-.79-.94-1.06-1.88-1.06-2.6,0-3.13,2.87-3.53,4.73-.4,1.9-1.12,4.86,1.54,4.86.99,0,1.77-.31,2.43-1.21h.04l-.22,1.02h2.45l2.72-12.78h-2.58s0,0,0,0Z"/>
  </g>
  <g>
    <rect class="cls-2" x="1399.13" y="424.97" width="100.96" height="90.05"/>
    <path class="cls-4" d="M1449.63,510.08h19.81l16.58-16.42v-39.61h7.71v-24.13h-40.13v24.13h8.13v31.8h-24.24v-31.8h8.13v-24.13h-40.13v24.13h8.13v39.61l16.58,16.42h19.81-.36Z"/>
  </g>
  <g>
    <rect class="cls-2" x="1774.93" y="426.71" width="121.59" height="92.22"/>
    <image width="1200" height="907" transform="translate(1779.94 431.71) scale(.09)" xlink:href="../../../Downloads/Utah_State_Aggies_logo.svg.png"/>
  </g>
</svg>